HIERARCHY
ROOT Hips
{
	OFFSET 0.000000 0.000000 0.000000
	CHANNELS 6 Xposition Yposition Zposition Zrotation Yrotation Xrotation 
	JOINT LeftUpLeg_virtual
	{
		OFFSET 0.000000 0.000000 0.000000
		CHANNELS 3 Zrotation Yrotation Xrotation
		JOINT LeftUpLeg
		{
			OFFSET 8.479694 -4.795517 -0.379053
			CHANNELS 3 Zrotation Yrotation Xrotation
			JOINT LeftLeg
			{
				OFFSET 0.485052 -32.551468 0.112863
				CHANNELS 3 Zrotation Yrotation Xrotation
				JOINT LeftFoot
				{
					OFFSET 0.438033 -32.635670 -3.012641
					CHANNELS 3 Zrotation Yrotation Xrotation
					JOINT LeftToeBase
					{
						OFFSET 0.970169 -13.225353 11.864223
						CHANNELS 3 Zrotation Yrotation Xrotation
						End Site
						{
							OFFSET 0.000000 0.000000 0.000000
						}
					}
				}
			}
		}
	}
	JOINT RightUpLeg_virtual
	{
		OFFSET 0.000000 0.000000 0.000000
		CHANNELS 3 Zrotation Yrotation Xrotation
		JOINT RightUpLeg
		{
			OFFSET -8.479694 -4.795517 -0.379053
			CHANNELS 3 Zrotation Yrotation Xrotation
			JOINT RightLeg
			{
				OFFSET -0.484100 -32.551483 0.112903
				CHANNELS 3 Zrotation Yrotation Xrotation
				JOINT RightFoot
				{
					OFFSET -0.438985 -32.635651 -3.012681
					CHANNELS 3 Zrotation Yrotation Xrotation
					JOINT RightToeBase
					{
						OFFSET -0.970169 -13.225354 11.864223
						CHANNELS 3 Zrotation Yrotation Xrotation
						End Site
						{
							OFFSET 0.000000 0.000000 0.000000
						}
					}
				}
			}
		}
	}
	JOINT Spine_virtual
	{
		OFFSET 0.000000 0.000000 0.000000
		CHANNELS 3 Zrotation Yrotation Xrotation
		JOINT Spine
		{
			OFFSET 0.000000 7.722015 1.166203
			CHANNELS 3 Zrotation Yrotation Xrotation
			JOINT Spine1
			{
				OFFSET 0.000000 12.024086 0.248766
				CHANNELS 3 Zrotation Yrotation Xrotation
				JOINT Spine2
				{
					OFFSET -0.000000 11.503036 -0.491240
					CHANNELS 3 Zrotation Yrotation Xrotation
					JOINT Neck_virtual
					{
						OFFSET 0.000000 0.000000 0.000000
						CHANNELS 3 Zrotation Yrotation Xrotation
						JOINT Neck
						{
							OFFSET 0.000000 18.430687 -3.123054
							CHANNELS 3 Zrotation Yrotation Xrotation
							JOINT Head
							{
								OFFSET -0.000000 9.051071 1.034021
								CHANNELS 3 Zrotation Yrotation Xrotation
								End Site
								{
									OFFSET 0.000000 0.000000 0.000000
								}
							}
						}
					}
					JOINT LeftShoulder_virtual
					{
						OFFSET 0.000000 0.000000 0.000000
						CHANNELS 3 Zrotation Yrotation Xrotation
						JOINT LeftShoulder
						{
							OFFSET 6.197824 13.665230 -4.064723
							CHANNELS 3 Zrotation Yrotation Xrotation
							JOINT LeftArm
							{
								OFFSET 7.778132 -0.187073 -1.709282
								CHANNELS 3 Zrotation Yrotation Xrotation
								JOINT LeftForeArm
								{
									OFFSET 21.954697 0.000000 -2.041093
									CHANNELS 3 Zrotation Yrotation Xrotation
									JOINT LeftHand
									{
										OFFSET 22.992908 0.000000 -0.870901
										CHANNELS 3 Zrotation Yrotation Xrotation
										End Site
										{
											OFFSET 0.000000 0.000000 0.000000
										}
									}
								}
							}
						}
					}
					JOINT RightShoulder_virtual
					{
						OFFSET 0.000000 0.000000 0.000000
						CHANNELS 3 Zrotation Yrotation Xrotation
						JOINT RightShoulder
						{
							OFFSET -6.197824 13.665230 -4.064723
							CHANNELS 3 Zrotation Yrotation Xrotation
							JOINT RightArm
							{
								OFFSET -7.778132 -0.187073 -1.709282
								CHANNELS 3 Zrotation Yrotation Xrotation
								JOINT RightForeArm
								{
									OFFSET -21.954697 0.000000 -2.041093
									CHANNELS 3 Zrotation Yrotation Xrotation
									JOINT RightHand
									{
										OFFSET -22.992908 0.000000 -0.870901
										CHANNELS 3 Zrotation Yrotation Xrotation
										End Site
										{
											OFFSET 0.000000 0.000000 0.000000
										}
									}
								}
							}
						}
					}
				}
			}
		}
	}
}
MOTION
Frames: 8
Frame Time: 0.033333
21.676245 43.416706 26.042377 -179.815836 -34.556403 179.895940 3.962708 -9.854951 3.659652 -9.696219 17.380709 -85.816505 6.785425 -3.667472 125.483266 -3.625205 -5.779274 -23.858631 0.000000 0.000000 0.000000 4.081999 -6.508683 7.513763 -5.508408 -4.300299 -98.641141 -2.890202 -2.543007 118.887994 -7.403401 6.811093 -27.365855 0.000000 0.000000 0.000000 1.091985 -3.747841 5.458471 -8.092935 5.888599 0.354170 1.649142 -1.536757 0.745201 0.001035 0.017796 -0.011345 1.281246 -0.643321 5.134956 0.364688 -3.682745 12.380993 0.000000 0.000000 0.000000 3.044859 0.325644 -0.433000 -10.447961 -24.027632 8.447271 -41.694774 -51.529997 -3.975381 -131.648809 -83.248142 132.412069 0.000000 0.000000 0.000000 -1.414458 1.787589 -0.760025 16.240843 8.278680 3.722926 -17.190661 11.238859 -34.424242 173.308824 59.028810 169.424714 0.000000 0.000000 0.000000 
21.486353 43.384682 26.009718 -179.957671 -34.326249 179.890872 3.760393 -10.011527 3.783522 -9.606527 17.294934 -85.623607 6.844504 -3.668711 125.644772 -3.756910 -5.657614 -24.039192 0.000000 0.000000 0.000000 3.748917 -6.666191 7.561328 -5.451281 -4.520180 -98.616341 -2.709789 -2.795932 118.945327 -7.169965 7.102248 -27.247585 0.000000 0.000000 0.000000 1.076887 -3.796013 5.285315 -8.007387 5.954000 0.129551 1.643910 -1.596251 0.813631 -0.033357 0.020061 0.008465 1.393295 -0.893386 5.143032 0.126863 -3.486834 12.743456 0.000000 0.000000 0.000000 3.143525 0.186829 -0.367056 -10.625566 -23.983972 8.473559 -41.512039 -51.750052 -4.179325 -123.839731 -83.812739 124.599316 0.000000 0.000000 0.000000 -1.283391 1.664497 -0.826221 15.993863 8.544130 3.744857 -17.090762 10.890611 -34.092008 173.313195 58.781305 169.604553 0.000000 0.000000 0.000000 
21.253330 43.354359 25.952536 -179.937727 -34.028078 179.976960 3.694051 -10.134875 3.805128 -9.562708 17.190959 -85.532301 6.963853 -3.711818 125.843476 -3.909780 -5.517646 -24.114640 0.000000 0.000000 0.000000 3.729395 -7.048576 7.481554 -5.462293 -4.504045 -98.717428 -2.763222 -2.748771 119.098063 -6.897006 7.586577 -27.217585 0.000000 0.000000 0.000000 1.081941 -4.001728 5.051704 -7.932785 5.995058 -0.143917 1.665685 -1.644271 0.801127 0.005449 0.016699 -0.042066 1.404969 -0.842786 5.273163 -0.115360 -3.330919 13.030720 0.000000 0.000000 0.000000 3.157972 0.114705 -0.275814 -10.949392 -23.930181 8.527351 -41.475357 -52.220201 -4.053799 -107.657797 -84.602500 108.165191 0.000000 0.000000 0.000000 -1.258089 1.592679 -0.683710 15.702328 8.953827 3.812996 -16.854287 10.665407 -33.721832 173.215523 58.702361 169.675081 0.000000 0.000000 0.000000 
20.986515 43.323280 25.897478 -179.961469 -33.861896 -179.987560 3.595828 -10.172375 3.845761 -9.552151 17.060552 -85.373226 7.176973 -3.720488 126.029612 -4.046821 -5.402111 -24.276726 0.000000 0.000000 0.000000 3.669534 -7.256177 7.394430 -5.432137 -4.738811 -98.662513 -2.619324 -2.718625 119.258668 -6.773926 7.960462 -27.323432 0.000000 0.000000 0.000000 1.054865 -4.157925 4.824703 -7.874025 6.039861 -0.310270 1.697930 -1.700257 0.831474 -0.027383 -0.006369 -0.016256 1.456199 -0.894596 5.238134 -0.387485 -3.119891 13.164220 0.000000 0.000000 0.000000 3.207540 0.099101 -0.284030 -11.229526 -23.927384 8.578131 -41.651733 -52.822528 -3.631614 -84.797659 -84.821005 84.865729 0.000000 0.000000 0.000000 -1.176972 1.553201 -0.687575 15.413350 9.361509 3.959477 -16.437653 10.400601 -33.220305 173.188722 58.739497 169.804308 0.000000 0.000000 0.000000 
20.690361 43.283451 25.823891 -179.903440 -33.681138 -179.962330 3.870713 -10.189192 3.844893 -10.283140 16.923621 -85.328618 7.364481 -4.036260 126.134469 -4.038662 -5.065649 -24.425383 0.000000 0.000000 0.000000 3.513619 -7.439378 7.310118 -5.473930 -4.850153 -98.543347 -2.353921 -2.960492 119.407088 -6.803107 8.147938 -27.427065 0.000000 0.000000 0.000000 1.053188 -4.351847 4.655407 -7.810385 6.107727 -0.464425 1.696500 -1.709885 0.853222 -0.014124 0.001260 -0.005389 1.416370 -0.986519 5.242148 -0.667314 -2.898776 13.191566 0.000000 0.000000 0.000000 3.170393 0.089086 -0.248157 -11.429121 -23.962715 8.457296 -42.031328 -53.375592 -3.022365 -65.610941 -84.261407 65.114775 0.000000 0.000000 0.000000 -1.201202 1.526621 -0.647192 15.098917 9.765692 4.149075 -15.921330 10.136960 -32.711825 173.147864 58.820476 169.921842 0.000000 0.000000 0.000000 
20.404259 43.235889 25.763384 -179.831313 -33.719319 -179.954229 3.879512 -10.332720 3.801854 -10.290104 16.873252 -85.214970 7.625631 -3.969490 126.346615 -4.069897 -4.958233 -24.611202 0.000000 0.000000 0.000000 3.660531 -7.673834 7.243870 -5.723688 -5.076811 -98.608124 -2.650339 -2.612198 119.724269 -6.591412 8.757521 -27.584598 0.000000 0.000000 0.000000 1.033063 -4.562138 4.531404 -7.777253 6.132782 -0.559610 1.713856 -1.742585 0.872505 -0.026919 -0.029174 0.008932 1.345692 -0.946166 5.215968 -0.933110 -2.706996 13.189173 0.000000 0.000000 0.000000 3.117725 0.096528 -0.224973 -11.591458 -23.955838 8.383635 -42.437027 -53.791920 -2.534489 -54.082049 -83.416288 52.977666 0.000000 0.000000 0.000000 -1.262696 1.592832 -0.656508 14.835748 10.167475 4.331085 -15.493159 9.895071 -32.183059 173.035767 58.980070 169.959559 0.000000 0.000000 0.000000 
20.155674 43.179493 25.733171 -179.844632 -33.592933 -179.948191 3.946081 -10.151253 3.765850 -10.525547 16.831225 -85.102825 7.862800 -3.917466 126.542478 -4.053984 -4.852317 -24.824253 0.000000 0.000000 0.000000 3.635702 -7.769070 7.207642 -6.090130 -5.071964 -98.622529 -2.710573 -2.643067 119.955279 -6.592235 9.036158 -27.632734 0.000000 0.000000 0.000000 0.952792 -4.680825 4.475221 -7.822652 6.181014 -0.599705 1.667049 -1.716104 0.872759 0.014488 -0.009313 0.035690 1.280186 -0.937696 5.142198 -1.204136 -2.458234 13.105248 0.000000 0.000000 0.000000 3.086604 0.140897 -0.322477 -11.714043 -23.933181 8.330371 -42.557041 -54.055066 -2.369365 -47.430125 -82.768362 45.721775 0.000000 0.000000 0.000000 -1.272600 1.621835 -0.642466 14.615039 10.645327 4.443320 -15.108578 9.824532 -31.739872 172.835751 59.299224 169.940188 0.000000 0.000000 0.000000 
19.947079 43.114723 25.723955 179.981331 -33.654787 -179.870054 3.935220 -10.064342 3.730676 -10.613175 16.797660 -84.945246 8.219785 -3.833514 126.737917 -4.188503 -5.042562 -25.021616 0.000000 0.000000 0.000000 3.425631 -7.944174 7.210491 -6.317215 -5.078653 -98.699150 -2.691164 -2.590123 120.171632 -6.613722 9.265158 -27.581709 0.000000 0.000000 0.000000 0.774952 -4.669638 4.482786 -7.974505 6.218272 -0.624756 1.586572 -1.668857 0.867161 -0.014476 0.031875 0.019367 1.283942 -0.727243 5.057401 -1.313387 -2.413928 12.980687 0.000000 0.000000 0.000000 3.117648 0.131263 -0.277808 -11.804628 -23.923636 8.277916 -42.622388 -54.301322 -2.498544 -44.146941 -82.065604 41.921416 0.000000 0.000000 0.000000 -1.249486 1.624712 -0.733730 14.500398 10.947507 4.764193 -14.816856 9.704448 -31.423450 172.783760 59.592171 170.039363 0.000000 0.000000 0.000000 
